<svg width="52" height="52" xmlns="http://www.w3.org/2000/svg">

 <g>
  <title>background</title>
  <rect fill="none" id="canvas_background" height="402" width="582" y="-1" x="-1"/>
 </g>
 <g>
  <title>Layer 1</title>
  <path fill="#ffffff" id="svg_3" d="m5.99879,5.23561c12.24159,-0.02754 24.48319,-0.05508 36.72478,-0.08261c1.75712,-0.00396 3.66092,-0.40131 5.22018,0.5955c1.75822,1.12401 1.35395,1.36451 1.35267,3.45615c-0.00195,3.16884 -0.00389,6.33768 -0.00584,9.50651c-0.00175,2.85195 -0.00351,5.7039 -0.00526,8.55586c-0.0026,4.23563 1.42257,9.26726 -4.20351,10.76743c-4.91397,1.31028 -11.7037,0.15148 -16.7685,0.09529c-6.114,-0.06782 -12.228,-0.13565 -18.342,-0.20347c-4.92801,-0.05467 -6.76938,-0.09116 -7.26534,-5.54347c-0.25354,-2.7874 -0.36827,-5.58803 -0.43251,-8.38563c-0.07149,-3.11322 -0.0482,-6.22844 -0.00091,-9.34182c0.01818,-1.19671 -0.12649,-2.55809 0.07131,-3.73707c0.41434,-2.46974 2.39034,-5.94419 5.39658,-5.70067c1.44335,0.11691 1.43568,-2.13371 0,-2.25c-7.15246,-0.57938 -7.57504,3.85343 -7.68481,9.81898c-0.08018,4.35807 -0.13054,8.71948 0.01911,13.07678c0.11187,3.25714 -0.30838,7.67996 0.87712,10.77512c2.11078,5.51097 11.2641,3.56268 15.77703,3.61274c9.12736,0.10126 18.31127,0.4975 27.43208,0.07505c7.05838,-0.32693 7.36791,-2.57285 7.37202,-9.25666c0.00272,-4.43637 0.00545,-8.87274 0.00817,-13.30911c0.00219,-3.55596 1.16977,-9.4801 -0.14412,-12.79024c-0.65737,-1.65613 -1.22975,-1.80643 -2.87482,-2.08032c-4.21421,-0.70162 -9.27235,0.02086 -13.53019,0.03044c-9.66441,0.02174 -19.32883,0.04348 -28.99324,0.06522c-1.44762,0.00326 -1.4503,2.25326 0,2.25l0,0z" class="st0"/>
  <path fill="#ffffff" id="svg_5" d="m1.99845,31.97044c15.63886,-0.0613 31.27773,-0.12261 46.9166,-0.18391c1.44749,-0.00568 1.45038,-2.25569 0,-2.25c-15.63887,0.0613 -31.27774,0.12261 -46.9166,0.18391c-1.4475,0.00567 -1.45039,2.25568 0,2.25l0,0z" class="st0"/>
  <path fill="#ffffff" id="svg_7" d="m48.41523,31.91623c0.61111,0 1.22222,0 1.83333,0c1.44777,0 1.45017,-2.25 0,-2.25c-0.61111,0 -1.22222,0 -1.83333,0c-1.44777,0 -1.45017,2.25 0,2.25l0,0z" class="st0"/>
  <path fill="#ffffff" id="svg_9" d="m33.84334,8.87432c0.05864,5.72447 0.11728,11.44893 0.17591,17.1734c0.64017,-0.26517 1.28033,-0.53033 1.9205,-0.7955c-1.8849,-1.88346 -4.06361,-3.20733 -6.62516,-3.98008c-1.18107,-0.35629 -2.3919,-0.57548 -3.61762,-0.70429c-1.39127,-0.1462 -4.18948,0.29704 -5.36112,-0.42855c-0.65552,-1.52455 -1.31104,-3.0491 -1.96655,-4.57365c0.75251,-0.52318 1.50502,-1.04636 2.25753,-1.56955c0.85892,-0.29099 1.96006,-0.18288 2.86163,-0.22382c1.25591,-0.05702 2.52953,-0.02063 3.76938,-0.27329c3.07667,-0.62695 5.66749,-2.7615 8.23422,-4.44545c1.20581,-0.7911 0.0798,-2.74021 -1.13562,-1.94281c-2.04869,1.34408 -4.22256,3.17096 -6.57713,3.94256c-2.19927,0.72069 -4.51463,0.26651 -6.75803,0.60885c-2.7503,0.4197 -5.10268,2.09375 -5.25255,5.09605c-0.15156,3.03603 2.13071,5.20469 4.93123,5.76034c1.76012,0.34922 3.62549,0.12403 5.40551,0.37273c3.18704,0.4453 5.94636,1.65677 8.24329,3.95195c0.68375,0.68323 1.93053,0.18377 1.92049,-0.79549c-0.05863,-5.72447 -0.11727,-11.44893 -0.17591,-17.1734c-0.01482,-1.44697 -2.26486,-1.45065 -2.25,0l0,0z" class="st0"/>
  <path fill="#ffffff" id="svg_11" d="m22.12356,12.87456c0,2.69445 0,5.38889 0,8.08334c0,1.44776 2.25,1.45016 2.25,0c0,-2.69445 0,-5.38889 0,-8.08334c0,-1.44776 -2.25,-1.45016 -2.25,0l0,0z" class="st0"/>
  <path fill="#ffffff" id="svg_13" d="m20.11592,22.52073c0.25852,0.56126 0.92216,1.03607 1.16479,1.40668c0.52254,0.79814 1.10187,1.57066 1.66604,2.34596c0.36017,0.49495 0.97342,0.72559 1.53922,0.4036c0.48799,-0.27771 0.76008,-1.04933 0.40359,-1.53921c-0.53533,-0.73567 -1.15873,-1.46636 -1.61709,-2.24298c-0.18397,-0.31169 -0.36488,-0.58909 -0.62663,-0.84675c-0.22443,-0.22092 -0.4533,-0.3724 -0.58711,-0.66292c-0.6051,-1.31369 -2.54507,-0.1719 -1.94281,1.13562l0,0z" class="st0"/>
  <path fill="#ffffff" id="svg_15" d="m25.91523,36.5829c1.44777,0 1.45016,-2.25 0,-2.25c-1.44777,0 -1.45017,2.25 0,2.25l0,0z" class="st0"/>
  <path fill="#ffffff" id="svg_17" d="m14.24856,49.41623c7.77778,0 15.55556,0 23.33333,0c1.44777,0 1.45017,-2.25 0,-2.25c-7.77777,0 -15.55555,0 -23.33333,0c-1.44777,0 -1.45017,2.25 0,2.25l0,0z" class="st0"/>
  <path fill="#ffffff" id="svg_19" d="m28.17216,40.7951c0.93451,0.94653 1.36085,2.29154 2.20024,3.32979c1.04457,1.29205 2.08819,2.42717 2.73586,3.98864c0.54686,1.31844 2.72478,0.74028 2.16963,-0.59814c-0.6511,-1.56975 -1.49954,-2.89886 -2.61931,-4.17682c-1.12499,-1.28393 -1.70101,-2.92468 -2.89543,-4.13446c-1.01888,-1.03198 -2.60976,0.55913 -1.59099,1.59099l0,0z" class="st0"/>
  <path fill="#ffffff" id="svg_21" d="m21.47571,39.44216c-2.40702,1.97947 -4.63193,4.94061 -5.83473,7.82266c-0.55701,1.33464 1.61919,1.91705 2.16963,0.59814c0.5165,-1.23759 1.46776,-2.4057 2.22032,-3.507c0.86348,-1.26364 1.85458,-2.35143 3.03577,-3.32281c1.11915,-0.92036 -0.48061,-2.50414 -1.59099,-1.59099l0,0z" class="st0"/>
  <path fill="#ffffff" id="svg_23" d="m22.38746,38.59671c-0.2633,0.26455 -0.52659,0.52909 -0.78989,0.79364c-1.02265,1.0275 0.56769,2.61914 1.59099,1.59098c0.2633,-0.26454 0.52659,-0.52909 0.78989,-0.79363c1.02265,-1.02751 -0.56769,-2.61915 -1.59099,-1.59099l0,0z" class="st0"/>
 </g>
</svg>