<svg xmlns="http://www.w3.org/2000/svg" x="0px" y="0px"
width="100" height="100"
viewBox="0 0 192 192"
style=" fill:#000000;"><g fill="none" fill-rule="nonzero" stroke="none" stroke-width="1" stroke-linecap="butt" stroke-linejoin="miter" stroke-miterlimit="10" stroke-dasharray="" stroke-dashoffset="0" font-family="none" font-weight="none" font-size="none" text-anchor="none" style="mix-blend-mode: normal"><path d="M0,192v-192h192v192z" fill="none"></path><g fill="#ffffff"><g id="surface1"><path d="M46.08,7.68c-12.675,0 -23.04,10.365 -23.04,23.04v132.165c0,12.195 10.875,21.435 23.04,21.435h122.88v-7.68h-122.88c-8.295,0 -15.36,-6.225 -15.36,-13.755c0,-7.53 6.915,-13.125 15.36,-13.125h122.88v-142.08zM46.08,15.36h115.2v126.72h-115.2c-5.73,0 -11.16,2.07 -15.36,5.445v-116.805c0,-8.52 6.84,-15.36 15.36,-15.36zM57.6,34.56c-4.2,0 -7.68,3.48 -7.68,7.68v15.36c0,4.2 3.48,7.68 7.68,7.68h80.64c4.2,0 7.68,-3.48 7.68,-7.68v-15.36c0,-4.2 -3.48,-7.68 -7.68,-7.68zM57.6,42.24h80.64v15.36h-80.64z"></path></g></g></g></svg>