<svg xmlns="http://www.w3.org/2000/svg" x="0px" y="0px"
width="100" height="100"
viewBox="0 0 192 192"
style=" fill:#000000;"><g fill="none" fill-rule="nonzero" stroke="none" stroke-width="1" stroke-linecap="butt" stroke-linejoin="miter" stroke-miterlimit="10" stroke-dasharray="" stroke-dashoffset="0" font-family="none" font-weight="none" font-size="none" text-anchor="none" style="mix-blend-mode: normal"><path d="M0,192v-192h192v192z" fill="none"></path><g fill="#fff"><g id="surface1"><path d="M46.08,7.68c-10.56,0 -19.2,8.64 -19.2,19.2c0,10.56 8.64,19.2 19.2,19.2c10.56,0 19.2,-8.64 19.2,-19.2c0,-10.56 -8.64,-19.2 -19.2,-19.2zM111.36,7.68v7.68h-38.4v7.68h103.68v99.84h-99.84v7.68h32.64l-21.12,42.24h7.68l19.2,-38.4l19.2,38.4h7.68l-21.12,-42.24h59.52c2.115,0 3.84,-1.725 3.84,-3.84v-107.52c0,-2.115 -1.725,-3.84 -3.84,-3.84h-61.44v-7.68zM46.08,15.36c6.405,0 11.52,5.115 11.52,11.52c0,6.405 -5.115,11.52 -11.52,11.52c-6.405,0 -11.52,-5.115 -11.52,-11.52c0,-6.405 5.115,-11.52 11.52,-11.52zM28.8,49.92c-11.625,0 -21.12,9.495 -21.12,21.12v47.28c-0.015,0.165 -0.015,0.315 0,0.48v0.24c-0.015,0.36 0.03,0.735 0.12,1.08c0.57,5.805 5.46,10.44 11.4,10.44c1.35,0 2.625,-0.285 3.84,-0.72v41.04c0,7.38 6.06,13.44 13.44,13.44c3.75,0 7.155,-1.575 9.6,-4.08c2.445,2.505 5.85,4.08 9.6,4.08c7.38,0 13.44,-6.06 13.44,-13.44v-97.92h42.24c6.315,0 11.52,-5.205 11.52,-11.52c0,-6.24 -5.07,-11.385 -11.28,-11.52c-0.075,0 -0.165,0 -0.24,0h-53.76c-1.485,-0.015 -2.835,0.825 -3.48,2.16l-8.04,16.08l-8.04,-16.08c-0.645,-1.335 -1.995,-2.175 -3.48,-2.16zM28.8,57.6h3.36l10.44,20.88c0.63,1.35 1.995,2.22 3.48,2.22c1.485,0 2.85,-0.87 3.48,-2.22l10.44,-20.88h51.36c0.12,0 0.24,0 0.36,0c1.995,0.18 3.48,1.8 3.48,3.84c0,2.175 -1.665,3.84 -3.84,3.84h-46.08c-2.115,0 -3.84,1.725 -3.84,3.84v101.76c0,3.225 -2.535,5.76 -5.76,5.76c-3.03,0 -5.475,-2.22 -5.76,-5.16v-0.96c0,-0.12 0,-0.24 0,-0.36v-39.6c0.045,-1.11 -0.405,-2.175 -1.2,-2.925c-0.81,-0.765 -1.905,-1.14 -3,-1.035c-0.165,0.03 -0.33,0.075 -0.48,0.12c-1.785,0.405 -3.045,2.01 -3,3.84v39.6c-0.015,0.165 -0.015,0.315 0,0.48v0.84c-0.285,2.94 -2.73,5.16 -5.76,5.16c-3.225,0 -5.76,-2.535 -5.76,-5.76v-90.24c0.03,-1.185 -0.495,-2.31 -1.41,-3.06c-0.9,-0.75 -2.115,-1.035 -3.27,-0.78c-1.785,0.405 -3.045,2.01 -3,3.84v37.8c0,0.12 0,0.24 0,0.36v0.24c0,2.175 -1.665,3.84 -3.84,3.84c-2.085,0 -3.72,-1.545 -3.84,-3.6c0,-0.075 0,-0.165 0,-0.24c0.03,-0.24 0.03,-0.48 0,-0.72v-47.28c0,-7.47 5.97,-13.44 13.44,-13.44z"></path></g></g></g></svg>